{"title":"Free Birds (2013) 720p BluRay x264 [Dual Audio]","uid":11743212,"size":1019400078,"categoryP":"video","categoryS":"hd___movies","magnet":"?xt=urn:btih:f36b07d476dbae4ae756b9c8f9131883cc6068e5&amp;dn=Free+Birds+%282013%29+720p+BluRay+x264+%5BDual+Audio%5D+&amp;tr=udp%3A%2F%2Ftracker.openbittorrent.com%3A80&amp;tr=udp%3A%2F%2Fopen.demonii.com%3A1337&amp;tr=udp%3A%2F%2Ftracker.coppersurfer.tk%3A6969&amp;tr=udp%3A%2F%2Fexodus.desync.com%3A6969","seeders":16,"leechers":9,"uploader":"makintos13","files":17,"time":1425884678,"description":" &lt;a href=&quot;http://imgsleek.com/img-54fd380d60cfc.html&quot; rel=&quot;nofollow&quot; target=&quot;_NEW&quot;&gt;http://imgsleek.com/img-54fd380d60cfc.html&lt;/a&gt;\n &lt;a href=&quot;\nhttp://imgsleek.com/img-54fd380d6f784.html&quot; rel=&quot;nofollow&quot; target=&quot;_NEW&quot;&gt;\nhttp://imgsleek.com/img-54fd380d6f784.html&lt;/a&gt;\n &lt;a href=&quot;\nhttp://imgsleek.com/img-54fd380d7c6d3.html&quot; rel=&quot;nofollow&quot; target=&quot;_NEW&quot;&gt;\nhttp://imgsleek.com/img-54fd380d7c6d3.html&lt;/a&gt;\n\n\n.................\n\nGENERAL INFO\n\n::::::::::::::::::::::::::::\nFormat: Matroska\nFile Size: 1.43 GiB\nOverall Bitrate: 1 617 Kbps\nDuration: 1h 31mn\nSample: Included\nSubTitles: ENGLISH SRT\n::::::::::::::::::::::::::::\naymejW9.png\n\nVIDEO\n\n::::::::::::::::::::::::::::\nFormat: AVC\nFormat/Info: Advanced Video Codec\nCodec ID: V_MPEG4/AVC\nDuration: 1h 31mn\nBitrate: 1 080 Kbps\nResolution: 1280 X 720 pixels\nAspect ratio(AR): 1.85:1\nFrame Rate Mode: Constant\nFrame Rate: 23.976 fps\nStream Size: 666 MiB (70%)\nTitle: Free Birds (2013)\nDefault: Yes\nForced: No\n::::::::::::::::::::::::::::\n\n\nHINDI AUDIO\n\n::::::::::::::::::::::::::::\nFormat: AC-3\nFormat/Info: Audio Coding 3\nCodec ID: A_AC3\nDuration: 1h 31mn\nBitrate Mode: Constant\nBitrate: 192 Kbps\nChannel(s): 2 Channels\nChannel positions: Front: L R\nSampling rate: 48.0 KHz\nBit depth: 16 bits\nStream size: 125 MiB (13%)\nTitle: Hindi DD 2.0 192Kbps\nlanguage: Hindi\nDefault: Yes\nForced: No\n::::::::::::::::::::::::::::\n\nENGLISH AUDIO\n\n::::::::::::::::::::::::::::\nFormat: AC-3\nFormat/Info: Audio Coding 3\nCodec ID: A_AC3\nDuration: 1h 31mn\nBitrate Mode: Constant\nBitrate: 224 Kbps\nChannel(s): 6 Channels\nChannel positions: Front: L C R, Side: L R, LFE\nSampling rate: 48.0 KHz\nBit depth: 16 bits\nStream size: 146 MiB (15%)\nTitle: English DD 5.1 224Kbps\nlanguage: English\nDefault: No\nForced: No\n::::::::::::::::::::::::::::\n\nSUBTITLE NA","torrent":{"xt":"urn:btih:f36b07d476dbae4ae756b9c8f9131883cc6068e5","amp;dn":"Free+Birds+%282013%29+720p+BluRay+x264+%5BDual+Audio%5D+","amp;tr":["udp%3A%2F%2Ftracker.openbittorrent.com%3A80","udp%3A%2F%2Fopen.demonii.com%3A1337","udp%3A%2F%2Ftracker.coppersurfer.tk%3A6969","udp%3A%2F%2Fexodus.desync.com%3A6969"],"infoHash":"f36b07d476dbae4ae756b9c8f9131883cc6068e5","infoHashBuffer":{"type":"Buffer","data":[243,107,7,212,118,219,174,74,231,86,185,200,249,19,24,131,204,96,104,229]},"announce":[],"urlList":[]}}